<?xml version="1.0" encoding="UTF-8" standalone="no"?>
<!-- Created with Inkscape (http://www.inkscape.org/) -->

<svg
   xmlns:dc="http://purl.org/dc/elements/1.1/"
   xmlns:cc="http://creativecommons.org/ns#"
   xmlns:rdf="http://www.w3.org/1999/02/22-rdf-syntax-ns#"
   xmlns:svg="http://www.w3.org/2000/svg"
   xmlns="http://www.w3.org/2000/svg"
   xmlns:sodipodi="http://sodipodi.sourceforge.net/DTD/sodipodi-0.dtd"
   xmlns:inkscape="http://www.inkscape.org/namespaces/inkscape"
   height="297mm"
   width="210mm"
   viewBox="0 0 744.09448819 1052.3622047"
   id="svg2"
   version="1.1"
   inkscape:version="0.91 r13725"
   sodipodi:docname="icon.svg">
  <defs
     id="defs8" />
  <sodipodi:namedview
     pagecolor="#ffffff"
     bordercolor="#666666"
     borderopacity="1"
     objecttolerance="10"
     gridtolerance="10"
     guidetolerance="10"
     inkscape:pageopacity="0"
     inkscape:pageshadow="2"
     inkscape:window-width="1920"
     inkscape:window-height="1051"
     id="namedview6"
     showgrid="false"
     inkscape:zoom="0.89702955"
     inkscape:cx="377.6212"
     inkscape:cy="421.69644"
     inkscape:window-x="1920"
     inkscape:window-y="0"
     inkscape:window-maximized="1"
     inkscape:current-layer="svg2" />
  <metadata
     id="metadata4">
    <rdf:RDF>
      <cc:Work
         rdf:about="">
        <dc:format>image/svg+xml</dc:format>
        <dc:type
           rdf:resource="http://purl.org/dc/dcmitype/StillImage" />
        <dc:title></dc:title>
      </cc:Work>
    </rdf:RDF>
  </metadata>
  <rect
     style="fill:#ffaaaa"
     id="rect3325"
     width="550.70648"
     height="550.70648"
     x="6.6887426"
     y="353.38858"
     inkscape:export-xdpi="90"
     inkscape:export-ydpi="90" />
  <circle
     style="fill:#000000"
     id="path3237"
     cx="279.83795"
     cy="669.26013"
     r="119.81794"
     inkscape:export-xdpi="90"
     inkscape:export-ydpi="90" />
  <ellipse
     style="fill:#ffffff"
     id="path3241"
     cx="260.52518"
     cy="655.46527"
     rx="47.690693"
     ry="36.654831"
     inkscape:export-xdpi="90"
     inkscape:export-ydpi="90" />
  <ellipse
     style="fill:#000000"
     id="path3245"
     cx="270.77277"
     cy="771.73602"
     rx="80.010002"
     ry="78.827591"
     inkscape:export-xdpi="90"
     inkscape:export-ydpi="90" />
  <ellipse
     style="fill:#ffffff"
     id="path3249"
     cx="271.45151"
     cy="763.07404"
     rx="58.526501"
     ry="32.886318"
     inkscape:export-xdpi="90"
     inkscape:export-ydpi="90" />
  <path
     style="fill:#000000"
     d="m 316.16763,590.01755 c 10.96095,-48.2555 65.3018,-63.90762 108.22919,-69.26131 17.33469,-8.49468 51.1217,-4.52405 16.06597,3.56283 -39.08331,4.97398 -81.281,13.06259 -108.24637,44.75463 -5.99992,6.44964 -11.36769,13.48299 -16.04879,20.94385 z"
     id="path3253"
     inkscape:connector-curvature="0"
     inkscape:export-xdpi="90"
     inkscape:export-ydpi="90" />
  <path
     style="fill:#000000"
     d="m 271.34523,585.44816 c 4.68657,-49.60355 1.10472,-107.19876 -37.50619,-143.42347 -15.94579,-7.54713 -35.11232,-21.13221 -5.65257,-17.42956 37.71958,5.25637 47.18463,47.38854 54.30622,78.39656 4.25546,26.64028 14.2304,63.14165 -11.14746,82.45647 z"
     id="path3255"
     inkscape:connector-curvature="0"
     inkscape:export-xdpi="90"
     inkscape:export-ydpi="90" />
  <path
     style="fill:#000000"
     d="M 202.79905,606.24613 C 178.47097,565.76732 144.8072,521.56742 94.87202,514.66969 c -36.891928,-6.53822 -47.690714,38.74612 -75.717792,45.67119 20.946871,-40.3271 72.512654,-67.20099 116.346362,-46.91026 28.55348,13.31453 48.67074,39.43673 67.62118,63.671 4.5358,8.64961 11.69023,22.67286 -0.32272,29.14451 z"
     id="path3257"
     inkscape:connector-curvature="0"
     inkscape:export-xdpi="90"
     inkscape:export-ydpi="90" />
  <path
     style="fill:#000000"
     d="m 366.64787,660.01251 c 20.74487,-38.66582 76.56872,-38.09976 105.91861,-9.91811 29.91979,23.57179 31.44647,64.24637 52.54112,94.09728 8.61157,8.86036 21.52715,67.25113 1.02777,44.65077 -23.29059,-51.83657 -35.43874,-116.9288 -89.66218,-146.56476 -24.37489,-14.61062 -49.80899,4.82046 -69.82532,17.73482 z"
     id="path3259"
     inkscape:connector-curvature="0"
     inkscape:export-xdpi="90"
     inkscape:export-ydpi="90" />
  <path
     style="fill:#000000"
     d="m 303.67416,592.13691 c -10.13219,-62.77053 23.37865,-137.63134 88.70883,-154.04602 -45.70766,13.73029 -66.69549,62.34395 -74.33909,105.63588 -6.55686,14.94082 0.24661,38.1108 -14.36974,48.41014 z"
     id="path3261"
     inkscape:connector-curvature="0"
     inkscape:export-xdpi="90"
     inkscape:export-ydpi="90" />
  <path
     style="fill:#000000"
     d="m 353.62934,610.79925 c 40.41893,-40.45267 114.71124,-48.59306 156.85542,-6.42098 -40.57325,5.7876 -77.71311,-35.1214 -118.28585,-15.10072 -14.37744,4.46869 -24.45734,17.23825 -38.56957,21.5217 z"
     id="path3263"
     inkscape:connector-curvature="0"
     inkscape:export-xdpi="90"
     inkscape:export-ydpi="90" />
  <path
     style="fill:#000000"
     d="m 180.76294,653.50413 c 8.41824,-53.58898 -61.13269,-62.02973 -94.641614,-38.40975 -26.654801,4.77746 -18.41782,79.44151 -36.593254,34.45938 10.543909,-44.45222 66.087378,-45.65414 102.337908,-56.50458 32.3466,-5.70076 55.4352,40.31198 28.89696,60.45495 z"
     id="path3265"
     inkscape:connector-curvature="0"
     inkscape:export-xdpi="90"
     inkscape:export-ydpi="90" />
  <ellipse
     style="fill:#000000"
     id="path3315"
     cx="260.30359"
     cy="658.28375"
     rx="11.7053"
     ry="9.4757195"
     inkscape:export-xdpi="90"
     inkscape:export-ydpi="90" />
  <ellipse
     style="fill:#000000"
     id="path3317"
     cx="339.4537"
     cy="956.49023"
     rx="1.6721857"
     ry="2.2295809"
     inkscape:export-xdpi="90"
     inkscape:export-ydpi="90" />
</svg>
